<?xml version="1.0" encoding="utf-8"?>
<!-- Generator: Adobe Illustrator 21.0.0, SVG Export Plug-In . SVG Version: 6.00 Build 0)  -->
<svg version="1.1" id="Layer_1" xmlns="http://www.w3.org/2000/svg" xmlns:xlink="http://www.w3.org/1999/xlink" x="0px" y="0px"
	 viewBox="0 0 512 512" style="enable-background:new 0 0 512 512;" xml:space="preserve">
<g>
	<path d="M194.2,0c-53.6,0-97.1,43.6-97.1,97.1c0,29.3,13.1,55.5,33.6,73.3C100.2,186.8,79.4,219,79.4,256
		c0,32.9,16.4,61.9,41.5,79.4c-25,17.6-41.5,46.6-41.5,79.4c0,53.6,43.6,97.1,97.1,97.1s97.1-43.6,97.1-97.1v-97.1V194.2h61.8
		c53.6,0,97.1-43.6,97.1-97.1S389,0,335.4,0H194.2z M194.2,35.3h141.2c34.1,0,61.8,27.7,61.8,61.8s-27.7,61.8-61.8,61.8h-61.8h-79.4
		c-34.1,0-61.8-27.7-61.8-61.8S160.1,35.3,194.2,35.3z M176.6,194.2h17.7h44.1v123.6h-61.8c-34.1,0-61.8-27.7-61.8-61.8
		S142.5,194.2,176.6,194.2z M344.3,194.2c-39,0-70.6,31.6-70.6,70.6s31.6,70.6,70.6,70.6s70.6-31.6,70.6-70.6
		S383.3,194.2,344.3,194.2z M176.6,353.1h61.8v61.8c0,34.1-27.7,61.8-61.8,61.8s-61.8-27.7-61.8-61.8S142.5,353.1,176.6,353.1z"/>
</g>
</svg>
