<?xml version="1.0" encoding="utf-8"?>
<!-- Generator: Adobe Illustrator 24.1.1, SVG Export Plug-In . SVG Version: 6.00 Build 0)  -->
<svg version="1.1" id="Layer_1" xmlns="http://www.w3.org/2000/svg" xmlns:xlink="http://www.w3.org/1999/xlink" x="0px" y="0px"
	 viewBox="0 0 512 512" style="enable-background:new 0 0 512 512;" xml:space="preserve">
<g>
	<path d="M489,149.9l-2.2-4.9l-3.7,4c-8.7,9.9-19.7,17.5-32.1,22.1l-3.4,1.3l1.4,3.3c10.6,25.4,16.1,52.7,16,80.2
		c0,115.3-93.8,209.2-209.2,209.2S46.8,371.3,46.8,256S140.8,46.8,256,46.8c31.3,0,61.5,6.8,89.6,20.2l3.3,1.6l1.4-3.3
		c5.2-12.2,13.3-22.7,23.6-31l4.2-3.4l-4.8-2.5C337.1,9.7,296.8-0.1,256,0C114.8,0,0,114.8,0,256c0,141.2,114.8,256,256,256
		c141.2,0,256-114.7,256-256C512,219.1,504.3,183.4,489,149.9z M256,139.3c-64.4,0.1-116.6,52.2-116.7,116.7
		c0.1,64.4,52.2,116.6,116.7,116.7c64.4-0.1,116.6-52.2,116.7-116.7C372.6,191.6,320.4,139.4,256,139.3z M476.7,96.5
		c0,29.4-23.8,53.2-53.2,53.2c-29.4,0-53.3-23.8-53.3-53.2C370.2,25.6,476.7,25.6,476.7,96.5z"/>
</g>
</svg>
