<?xml version="1.0" encoding="utf-8"?>
<!-- Generator: Adobe Illustrator 21.0.0, SVG Export Plug-In . SVG Version: 6.00 Build 0)  -->
<svg version="1.1" id="Layer_1" xmlns="http://www.w3.org/2000/svg" xmlns:xlink="http://www.w3.org/1999/xlink" x="0px" y="0px"
	 viewBox="0 0 512 512" style="enable-background:new 0 0 512 512;" xml:space="preserve">
<g>
	<path d="M241.4,68.7c-24.1-1.3-51.2,2.4-77.8,11.6C121.5,95,75.9,118,43.1,148c-39,35.7-45.2,66.7-42.6,79.7
		c9.1,46.1,74.1,76.1,100.1,98.3l-3.6,1.9c-13,6.3-61.4,31.2-73.8,58c-14,30.3,2.3,52.1,13,55c33.4,9.1,66.5-6.8,84.9-33.6
		c18.4-26.8,16.2-61.8,7.7-77.8l-0.3-0.6c3.4-2,6.8-3.9,10.2-5.9c6.6-3.8,13.1-7.3,18.8-10.4c-3.2,8.5-5.5,18.6-6.7,33.3
		c-1.4,17.2,5.8,39.5,15.3,48.2c4.2,3.8,9.2,3.9,12.3,3.9c11,0,16-8.9,21.5-19.6c6.8-13,12.8-28.1,12.8-28.1s-7.5,40.8,13.1,40.8
		c7.5,0,15-9.5,18.4-14.3v0.1l0.5-0.9l1.2-1.9V374c3-5.1,9.7-16.7,19.7-36c13-24.9,25.3-55.9,25.3-55.9c1.2,6.8,2.9,13.6,5,20.2
		c2.2,7.4,7,15.6,10.7,23.5c-3,4.1-4.9,6.4-4.9,6.4l0.1,0.2c-2.4,3.1-5.1,6.5-7.9,9.8c-10.2,11.9-22.4,25.5-24,29.4
		c-1.9,4.6-1.4,8,2.2,10.7c2.7,2,7.6,2.3,12.6,2c9.2-0.6,15.7-2.8,18.8-4.2c5.8-2,11.2-4.8,16.1-8.3c10-7.2,16.1-17.5,15.5-31.1
		c-0.3-7.5-2.8-15-5.9-22.1l2.7-3.9c15.8-22.6,28.1-47.4,28.1-47.4c1.2,6.8,2.9,13.6,5,20.2c1.9,6.3,5.7,13.3,9.1,20.1
		c-14.9,11.8-24.1,25.5-27.3,34.5c-5.9,16.7-1.3,24.1,7.5,25.9c3.9,0.8,9.5-1,13.7-2.7c6.2-2,12-4.9,17.3-8.7
		c10-7.2,19.7-17.3,19-31c-0.2-6.2-2-12.4-4.3-18.3c12.6-5.2,28.9-8,49.7-5.6c44.5,5.1,53.3,32.3,51.6,43.6
		c-1.7,11.4-11,17.7-14.2,19.6c-3.1,1.9-4.1,2.6-3.8,4c0.4,2,1.8,1.9,4.5,1.5c3.7-0.6,23.4-9.2,24.2-30.3
		c1.3-26.6-24.8-55.8-71.1-55.6h-0.1c-16.1,0-31.9,3.6-46.3,10.6c-4.7-9.3-9.6-17.4-10.4-23.5c-1-7.1-2-11.3-0.9-19.8
		c1.1-8.5,6.2-20.4,6.1-21.3c-0.1-0.9-1.1-5.2-11.4-5.2c-10.3-0.1-19.2,2-20.2,4.6c-1.8,4.9-3.2,9.9-4.2,14.9
		c-1.8,9.2-20.6,41.9-31.3,58.9c-3.5-6.7-6.5-12.5-7.1-17.2c-1-7.1-2-11.3-0.9-19.8c1.1-8.5,6.2-20.4,6.1-21.3
		c-0.1-0.9-1.1-5.2-11.4-5.2c-10.3-0.1-19.2,2-20.3,4.6c-1,2.7-2.2,8.9-4.2,14.9c-2.1,6-27.1,60.5-33.7,74.6
		c-3.4,7.2-6.3,13-8.3,16.9l-0.7,1.3l0.4-0.6c-1.8,3.4-2.8,5.2-2.8,5.2v0.1c-1.4,2.5-2.9,4.8-3.6,4.8c-0.5,0-1.5-6.6,0.2-15.6
		c3.8-18.9,12.7-48.3,12.6-49.4c-0.1-0.6,1.6-5.6-5.9-8.4c-7.3-2.6-9.9,1.7-10.5,1.7l-1.1,1.6c0,0,8.1-33.2-15.5-33.2
		c-14.7,0-35.2,15.8-45.3,30.1c-6.3,3.4-20,10.7-34.4,18.4c-5.5,3-11.2,6-16.5,8.9l-1.1-1.2c-28.6-29.9-81.5-51-79.3-91.1
		c0.8-14.6,6-53,101.7-99.6c78.4-38.2,141.1-27.7,151.9-4.4c15.5,33.3-33.5,95.1-114.9,104c-31,3.4-45.3-9.8-49.4-14.1
		c-4.2-4.6-4.9-4.9-6.5-4c-2.6,1.4-1,5.5,0,7.9c2.4,6.2,13.1,15.9,30.1,21.3c15,4.8,49.3,8.8,93.3-7.9
		c49.4-18.6,87.2-69.2,75.9-112.6C313.5,86.8,281.6,70.9,241.4,68.7z M215.2,278.2l2.7,1.4c2.8,4.6-9.7,38.7-12.9,46.3
		c-5.1,12.3-15.9,43.6-22.5,41.9c-5.6-1.4-9.1-25.3-1.1-48.7c4-11.8,12.5-25.9,17.5-31.4C204.9,281.2,211.5,278,215.2,278.2z
		 M381.4,316.8c0.9,2.7,1.4,5.6,1.5,8.5c-0.1,17.6-13,24.2-20.7,26.9c-1.6-1.1-1.4-4.8,4-16.2C368.3,331.5,373.1,324,381.4,316.8z
		 M112.7,336.2c6.6,23.8,0.3,44.8-15.3,61.3c-14.7,15.7-35.4,21.7-44.2,16.7c-9.5-5.4-5.8-28.6,12.4-45.3
		c11-10.2,25.3-19.6,34.7-25.3c2.2-1.3,5.3-3.1,9.1-5.4l1-0.5L112.7,336.2z M313.7,339l0.1,1.3c-0.1,14-13.9,23.4-20.1,27.2h0.1v0
		c-2.2,1.1-4.2,1.8-5.1,1.2l0.9-1.9c0,0,11.1-11.7,15.5-17C307.6,346.7,310.6,343,313.7,339z"/>
</g>
</svg>
