<?xml version="1.0" encoding="utf-8"?>
<!-- Generator: Adobe Illustrator 24.1.1, SVG Export Plug-In . SVG Version: 6.00 Build 0)  -->
<svg version="1.1" id="Layer_1" xmlns="http://www.w3.org/2000/svg" xmlns:xlink="http://www.w3.org/1999/xlink" x="0px" y="0px"
	 viewBox="0 0 512 512" style="enable-background:new 0 0 512 512;" xml:space="preserve">
<style type="text/css">
	.st0{fill:#333333;}
</style>
<g id="XMLID_2_">
	<path id="XMLID_6_" class="st0" d="M226.1,226.1V88.7c0-2.6-0.9-5.1-2.6-6.8c-1.7-1.7-4.3-2.6-6.8-2.6s-5.1,0.9-6.8,2.6
		c-1.7,1.7-2.6,4.3-2.6,6.8V227c0,2.6,0.9,5.1,2.6,6.8c1.7,1.7,4.3,2.6,6.8,2.6s5.1-0.9,6.8-2.6
		C225.3,232.1,226.1,229.5,226.1,226.1z M433.5,334.5c0,5.1-1.7,10.2-6,13.7c-4.3,4.3-8.5,6-13.7,6H281.6l-15.4,149.3
		c0,2.6-1.7,4.3-3.4,6c-1.7,1.7-4.3,2.6-6.8,2.6l0,0c-5.1,0-8.5-2.6-10.2-8.5l-23-149.3H98.1c-5.1,0-10.2-1.7-13.7-6
		c-4.3-4.3-6-8.5-6-13.7c0-25.6,7.7-47.8,23.9-68.3s34.1-30.7,54.6-30.7v-157c-11.1,0-19.6-4.3-27.3-11.9s-11.9-17.1-11.9-27.3
		c0-11.1,4.3-19.6,11.9-27.3C137.4,4.3,146.8,0,157,0h197.1c11.1,0,19.6,4.3,27.3,11.9s11.9,17.1,11.9,27.3
		c0,11.1-4.3,19.6-11.9,27.3c-7.7,7.7-17.1,11.9-27.3,11.9v157.9c20.5,0,38.4,10.2,54.6,30.7C425,286.7,433.5,309.8,433.5,334.5z"/>
</g>
</svg>
