<?xml version="1.0" encoding="utf-8"?>
<!-- Generator: Adobe Illustrator 24.1.1, SVG Export Plug-In . SVG Version: 6.00 Build 0)  -->
<svg version="1.1" id="Layer_1" xmlns="http://www.w3.org/2000/svg" xmlns:xlink="http://www.w3.org/1999/xlink" x="0px" y="0px"
	 viewBox="0 0 512 512" style="enable-background:new 0 0 512 512;" xml:space="preserve">
<style type="text/css">
	.st0{fill:#333333;}
</style>
<g id="XMLID_1_">
	<polygon id="XMLID_3_" class="st0" points="102.4,233.9 102.4,51.2 409.6,51.2 409.6,233.9 460.8,204.8 460.8,0 51.2,0 51.2,204.8 
			"/>
	<path id="XMLID_4_" class="st0" d="M339.5,333.2h-167L0,233.9v226.9C0,489.2,22.8,512,51.2,512h409.6c28.4,0,51.2-22.8,51.2-51.2
		V233.9L339.5,333.2z"/>
	<path id="XMLID_5_" class="st0" d="M256,282c0,0,102.4-74.8,102.4-130c0-52-79.6-74.8-102.4-6.3C233.2,77.2,153.6,100,153.6,152
		C153.6,207.2,256,282,256,282"/>
</g>
</svg>
