<?xml version="1.0" encoding="utf-8"?>
<!-- Generator: Adobe Illustrator 24.1.1, SVG Export Plug-In . SVG Version: 6.00 Build 0)  -->
<svg version="1.1" id="Layer_1" xmlns="http://www.w3.org/2000/svg" xmlns:xlink="http://www.w3.org/1999/xlink" x="0px" y="0px"
	 viewBox="0 0 512 512" style="enable-background:new 0 0 512 512;" xml:space="preserve">
<g>
	<path d="M188.8,395.9c0,0-19.6,11.4,13.9,15.2c40.6,4.7,61.3,4,106-4.5c0,0,11.7,7.4,28.2,13.8
		C236.7,463.4,110.1,417.9,188.8,395.9L188.8,395.9z M176.6,339.9c0,0-22,16.2,11.5,19.6c43.4,4.5,77.6,4.9,136.8-6.5
		c0,0,8.2,8.3,21.1,12.8C224.8,401.3,89.8,368.7,176.6,339.9L176.6,339.9z M279.8,244.8c24.7,28.4-6.5,54-6.5,54
		s62.7-32.4,33.9-72.9c-26.9-37.8-47.6-56.6,64.1-121.3C371.3,104.6,196,148.4,279.8,244.8L279.8,244.8z M412.3,437.4
		c0,0,14.5,11.9-15.9,21.2c-57.8,17.5-240.8,22.7-291.6,0.7c-18.2-7.9,16-19,26.8-21.2c11.2-2.5,17.7-2,17.7-2
		c-20.3-14.3-131.3,28.1-56.4,40.2C297.3,509.4,465.4,461.4,412.3,437.4z M198.2,281.8c0,0-93.1,22.1-33,30.1
		c25.4,3.4,76,2.7,123.2-1.3c38.5-3.3,77.2-10.2,77.2-10.2s-13.6,5.8-23.4,12.6c-94.5,24.8-277.1,13.2-224.5-12.2
		C162.1,279.4,198.2,281.8,198.2,281.8z M365.2,375.2c96-50,51.6-97.9,20.7-91.4c-7.6,1.5-11,2.9-11,2.9s2.8-4.4,8.2-6.3
		c61.3-21.6,108.5,63.6-19.8,97.3L365.2,375.2L365.2,375.2z M307.2,0c0,0,53.2,53.2-50.5,135c-83.1,65.7-18.9,103.1,0,145.8
		c-48.5-43.8-84.1-82.2-60.2-118.1C231.6,110,328.7,84.5,307.2,0z M207.6,510.4c92.2,5.8,233.7-3.3,237.2-46.9
		c0,0-6.5,16.5-76.3,29.6c-78.7,14.8-175.8,13.1-233.3,3.6C135.2,496.7,147.1,506.5,207.6,510.4L207.6,510.4z"/>
</g>
</svg>
